<?xml version="1.0" standalone="no"?>
<!DOCTYPE svg PUBLIC "-//W3C//DTD SVG 20010904//EN"
 "http://www.w3.org/TR/2001/REC-SVG-20010904/DTD/svg10.dtd">
<svg version="1.0" xmlns="http://www.w3.org/2000/svg"
 width="1024.000000pt" height="1024.000000pt" viewBox="0 0 1024.000000 1024.000000"
 preserveAspectRatio="xMidYMid meet">

<g transform="translate(0.000000,1024.000000) scale(0.100000,-0.100000)"
fill="#000000" stroke="none">
<path d="M5435 10051 c-158 -11 -174 -15 -280 -70 -109 -56 -243 -180 -320
-294 -42 -63 -70 -90 -170 -165 -231 -173 -345 -290 -445 -458 -88 -148 -131
-262 -155 -410 -30 -182 -35 -198 -105 -339 -51 -101 -90 -201 -141 -360 -72
-222 -101 -293 -145 -352 -43 -57 -21 -72 43 -28 20 13 39 23 41 20 2 -2 -5
-31 -17 -64 -35 -101 -52 -228 -53 -397 -1 -141 1 -164 20 -205 11 -26 25 -50
31 -53 6 -4 11 -22 11 -41 0 -44 32 -179 65 -274 29 -87 28 -81 13 -81 -7 0
-29 16 -50 37 -52 50 -65 37 -63 -62 1 -66 5 -80 31 -117 49 -70 74 -83 170
-87 98 -4 103 -11 44 -64 -63 -57 -113 -85 -192 -106 -57 -14 -73 -22 -73 -37
0 -29 123 -73 205 -74 87 0 62 -15 -52 -31 -70 -10 -86 -15 -76 -25 39 -38
146 -32 211 11 44 29 34 2 -64 -170 -117 -204 -185 -310 -214 -333 -12 -10
-98 -90 -191 -179 -221 -211 -297 -273 -424 -344 -265 -148 -451 -283 -654
-476 -49 -47 -126 -115 -170 -153 -45 -37 -96 -85 -113 -107 -146 -173 -206
-255 -265 -366 -53 -99 -85 -202 -116 -367 -31 -164 -36 -236 -37 -520 0 -196
-5 -298 -18 -390 -23 -166 -35 -644 -18 -758 27 -185 111 -362 322 -683 78
-118 159 -248 181 -289 75 -144 172 -230 399 -348 151 -79 233 -102 369 -102
58 0 142 7 187 16 l82 17 48 -31 c63 -40 153 -82 178 -82 11 0 56 -10 100 -21
153 -41 403 -67 675 -71 220 -3 274 4 363 48 41 20 64 24 145 24 265 1 722 48
1017 106 316 62 771 192 800 228 6 7 15 11 22 9 6 -2 43 10 82 26 38 17 74 31
80 31 6 0 11 7 11 16 0 13 3 14 15 4 21 -17 72 15 79 52 3 15 -1 76 -8 134 -8
59 -12 113 -9 122 4 9 2 13 -4 9 -12 -8 -23 46 -15 75 5 22 22 24 22 3 0 -8 5
-15 10 -15 6 0 10 -7 10 -17 0 -9 3 -14 6 -10 3 3 -6 30 -20 60 -14 30 -28 77
-30 103 -5 63 -6 65 -16 30 -6 -18 -5 -47 1 -74 5 -25 8 -47 5 -49 -2 -3 -10
22 -16 54 -9 42 -10 69 -2 97 8 31 7 46 -6 73 -11 24 -18 30 -25 21 -5 -9 -7
-4 -4 14 2 15 1 29 -2 30 -19 8 -96 282 -85 300 4 6 3 8 -3 5 -6 -4 -13 10
-17 36 -4 23 -20 97 -36 164 -16 67 -33 140 -36 163 -11 70 11 44 41 -47 26
-81 74 -209 96 -258 5 -11 17 -47 28 -80 10 -33 28 -80 39 -105 11 -25 23 -56
27 -70 6 -24 49 -145 66 -185 38 -95 129 -356 129 -373 0 -12 4 -22 9 -22 5 0
12 -12 16 -27 7 -31 38 -73 53 -73 9 0 57 34 118 84 18 14 40 26 50 26 18 0
35 15 165 145 77 77 82 86 96 180 6 42 4 54 -63 421 -74 406 -116 580 -216
899 -64 201 -68 265 -39 525 29 252 28 284 -5 307 -57 40 -61 46 -67 135 -16
197 -56 361 -114 460 -44 75 -243 362 -316 455 -95 121 -239 287 -323 373
-108 110 -184 199 -184 217 0 7 21 63 46 124 26 61 47 120 48 131 1 16 16 25
71 42 117 38 247 113 289 168 23 31 36 58 102 208 16 36 41 83 55 105 23 33
89 167 89 179 0 2 7 20 15 41 l16 37 39 -35 c48 -44 69 -55 131 -71 42 -11 56
-11 100 4 28 10 55 24 60 31 11 19 4 22 -19 10 -36 -19 -93 -13 -128 14 -40
30 -67 74 -90 144 l-17 54 29 85 c26 76 33 86 64 100 134 58 209 118 260 208
18 31 36 51 42 48 7 -5 9 -39 5 -99 -4 -71 -11 -106 -31 -146 -57 -119 17 -79
95 52 63 105 79 163 79 282 0 102 0 104 45 195 112 230 135 327 117 498 -17
157 -15 203 14 301 38 132 54 259 54 432 0 148 -6 202 -44 401 -63 329 -158
508 -357 665 -34 28 -97 82 -138 121 -42 38 -101 90 -131 114 -30 25 -96 85
-145 135 -171 171 -262 241 -345 268 -145 46 -238 46 -320 0 l-46 -26 -80 60
c-98 75 -120 86 -231 118 -102 30 -282 39 -488 26z m459 -190 c7 -11 -22 -23
-35 -15 -5 3 -7 10 -4 15 8 12 32 12 39 0z m164 -138 c6 -9 19 -18 28 -19 9
-1 17 -4 18 -6 22 -30 44 -76 39 -81 -3 -4 -25 -7 -47 -7 -30 0 -37 -3 -26
-10 8 -5 10 -10 4 -10 -19 0 -106 110 -100 127 5 12 1 14 -18 9 -15 -4 -28 -1
-32 6 -5 8 -2 9 9 5 9 -3 19 -2 22 3 9 14 89 1 103 -17z m599 -20 c-9 -8 -48
8 -42 18 4 5 14 5 26 -2 12 -6 18 -13 16 -16z m-537 -113 c0 -5 -2 -10 -4 -10
-3 0 -8 5 -11 10 -3 6 -1 10 4 10 6 0 11 -4 11 -10z m755 -60 c3 -5 1 -10 -4
-10 -6 0 -11 5 -11 10 0 6 2 10 4 10 3 0 8 -4 11 -10z m43 -8 c2 -7 -2 -10
-12 -6 -9 3 -16 11 -16 16 0 13 23 5 28 -10z m78 -166 c27 -13 66 -31 86 -40
38 -18 108 -80 108 -96 0 -4 -17 -7 -37 -5 -21 1 -41 -1 -44 -6 -3 -5 -28 3
-56 18 -52 28 -100 84 -88 102 3 7 0 8 -9 5 -12 -5 -36 21 -36 40 0 12 28 5
76 -18z m-673 -188 c45 -17 101 -44 125 -59 24 -15 85 -38 139 -51 l96 -23 16
25 c8 14 36 47 62 73 51 52 62 54 136 20 59 -27 225 -236 208 -263 -3 -5 0
-12 6 -16 8 -5 9 -3 4 6 -5 8 -4 11 3 6 6 -3 16 -23 23 -43 6 -20 25 -59 40
-85 26 -44 58 -133 65 -183 2 -11 10 -47 18 -80 16 -68 36 -309 36 -445 0 -84
-1 -91 -17 -84 -10 5 -127 10 -259 12 -210 2 -242 1 -248 -13 -7 -20 6 -54 37
-91 28 -33 63 -42 242 -63 169 -21 264 -54 229 -80 -5 -3 -10 -24 -11 -46 -2
-26 -10 -45 -23 -55 -31 -24 -48 -142 -31 -227 7 -38 15 -123 18 -191 4 -104
2 -137 -17 -214 -27 -110 -70 -207 -136 -308 -60 -90 -65 -102 -98 -208 -14
-45 -35 -101 -46 -124 -11 -23 -20 -47 -20 -54 0 -6 -9 -18 -20 -25 -11 -8
-24 -36 -31 -64 -6 -27 -18 -61 -26 -75 -8 -14 -23 -45 -35 -70 -25 -54 -65
-110 -80 -110 -13 0 -9 24 32 219 17 86 29 167 26 183 -3 15 -22 54 -42 86
-21 31 -43 71 -51 87 -7 17 -28 50 -47 75 l-33 45 -66 0 c-58 1 -67 -2 -67
-17 0 -22 -16 -24 -24 -3 -3 8 0 15 6 15 7 0 6 5 -2 15 -14 17 -43 19 -70 5
-13 -7 -21 -6 -30 5 -7 8 -17 15 -23 15 -6 0 -21 10 -34 21 -16 16 -26 19 -35
11 -47 -38 -117 -65 -177 -68 -55 -3 -72 -9 -123 -43 -33 -22 -87 -50 -121
-63 -89 -33 -149 -95 -175 -178 -27 -87 -65 -169 -77 -169 -5 0 -12 -8 -14
-17 -2 -10 -16 -31 -32 -47 -27 -26 -29 -27 -29 -8 0 29 -14 26 -39 -6 l-20
-28 -1 58 c0 31 -4 57 -9 57 -5 0 -11 10 -13 23 -3 17 -7 13 -18 -22 -13 -42
-14 -43 -21 -18 -4 15 -1 46 6 69 15 51 13 174 -3 190 -9 9 -19 -5 -42 -53
l-30 -64 6 45 c3 25 12 56 19 70 17 34 30 130 17 130 -5 0 -13 -21 -18 -47 -7
-43 -8 -45 -12 -18 -4 26 -5 28 -12 10 -8 -20 -9 -19 -9 1 -1 12 8 44 20 72
16 38 18 55 10 69 -10 17 -10 17 -11 -2 0 -11 -5 -27 -10 -35 -7 -10 -8 9 -4
60 4 48 2 70 -4 62 -7 -11 -11 -10 -16 4 -6 16 -8 16 -25 0 -17 -16 -19 -16
-25 0 -4 9 -4 19 -1 22 3 3 5 -1 5 -9 0 -11 2 -11 10 1 12 19 13 127 1 134
-18 11 -32 -23 -30 -75 1 -30 0 -58 -1 -64 -6 -25 1 -56 11 -49 8 4 9 -1 3
-17 -4 -13 -10 -40 -14 -59 -6 -31 -8 -27 -14 35 -7 67 -23 125 -34 125 -2 0
-11 -8 -18 -17 -11 -16 -13 -15 -12 12 0 17 -5 43 -11 58 -15 38 -45 33 -47
-8 -3 -64 -6 -81 -11 -62 -2 9 -12 17 -22 17 -10 0 -30 10 -44 23 -21 18 -27
32 -27 64 0 42 -14 63 -31 46 -5 -5 -12 -37 -15 -72 -5 -39 -10 -57 -15 -49
-5 7 -6 27 -3 44 3 17 1 48 -4 70 -6 21 -13 51 -16 66 -4 20 -11 26 -22 21
-14 -5 -15 3 -9 70 8 87 2 107 -26 81 -18 -16 -19 -16 -19 7 0 13 5 53 11 88
7 46 7 67 -1 75 -18 17 -40 -21 -40 -68 l0 -41 -15 29 c-12 23 -16 64 -16 173
l0 143 41 82 c22 46 63 126 90 178 29 56 47 102 44 113 -4 13 23 45 98 120
145 143 193 215 349 522 152 300 251 424 427 537 117 76 167 90 305 83 90 -5
123 -11 190 -37z m857 22 c8 -5 11 -10 5 -10 -5 0 -17 5 -25 10 -8 5 -10 10
-5 10 6 0 17 -5 25 -10z m275 -170 c3 -5 1 -10 -4 -10 -6 0 -11 5 -11 10 0 6
2 10 4 10 3 0 8 -4 11 -10z m-2840 -1896 c-8 -13 -11 -36 -8 -60 7 -57 -17
-83 -85 -91 -52 -6 -53 -6 -96 39 -27 29 -47 61 -56 91 -13 47 -13 47 24 92
21 25 41 45 45 45 4 0 31 29 59 64 29 35 67 78 85 96 l32 31 6 -143 c5 -110 4
-148 -6 -164z m-280 177 c-3 -6 -16 -16 -28 -22 -21 -11 -21 -10 2 15 23 25
40 29 26 7z m279 -448 c3 -38 10 -138 15 -223 9 -163 24 -228 80 -352 40 -91
111 -197 170 -256 44 -44 205 -174 342 -277 22 -16 72 -57 111 -90 189 -161
377 -305 400 -305 10 0 18 -4 18 -8 0 -4 9 -8 21 -9 12 -1 26 -9 32 -17 7 -9
42 -27 79 -40 78 -29 212 -37 271 -15 20 7 39 10 42 7 10 -9 -80 -200 -197
-417 -121 -224 -157 -302 -163 -350 -3 -25 -6 -46 -8 -47 -1 -2 -43 47 -92
109 -109 136 -350 384 -540 557 -138 125 -192 172 -376 320 -118 95 -323 293
-392 379 -30 36 -68 92 -86 123 l-32 57 20 45 c64 146 154 548 167 744 6 98 9
112 24 112 10 0 20 -5 22 -12 3 -8 12 -4 26 10 12 12 26 22 31 22 5 0 11 -30
15 -67z m383 -125 c-3 -8 -6 -5 -6 6 -1 11 2 17 5 13 3 -3 4 -12 1 -19z m1433
-72 c0 -11 -19 -15 -25 -6 -3 5 1 10 9 10 9 0 16 -2 16 -4z m-102 -191 c-3 -3
-9 2 -12 12 -6 14 -5 15 5 6 7 -7 10 -15 7 -18z m-258 -10 c0 -18 8 -18 40 -1
17 10 30 11 43 4 10 -5 24 -8 30 -5 7 2 21 1 32 -4 16 -6 12 -8 -16 -8 -71 -2
-285 -54 -305 -74 -12 -12 -32 -8 -38 8 -4 12 0 14 17 10 23 -5 68 27 80 58 3
9 11 17 17 17 14 0 13 -13 -2 -28 -9 -9 -9 -12 1 -12 15 0 75 32 79 43 6 13
22 7 22 -8z m240 5 c0 -5 8 -10 19 -10 10 0 43 -11 72 -24 33 -14 62 -21 73
-16 10 3 48 5 82 3 60 -2 64 -1 61 19 -5 47 22 24 61 -52 28 -54 42 -94 42
-118 l-1 -37 -13 36 c-38 106 -102 136 -236 109 -39 -8 -50 -6 -81 15 -20 13
-56 29 -80 35 -74 19 -77 21 -44 36 37 16 45 17 45 4z m-1006 -59 c-4 -17 -9
-30 -11 -27 -3 2 -2 19 2 36 4 17 9 30 11 27 2 -2 1 -18 -2 -36z m971 -30 c3
-5 19 -12 35 -16 17 -4 30 -11 30 -16 0 -6 -9 -7 -22 -3 -51 16 -92 22 -132
19 -49 -4 -88 4 -80 16 7 12 161 12 169 0z m285 -61 c0 -5 -6 -7 -14 -4 -8 3
-17 1 -21 -5 -3 -6 -25 -11 -48 -11 l-42 1 30 14 c35 16 95 19 95 5z m59 -11
c13 -11 22 -22 19 -24 -7 -7 -57 19 -63 33 -7 18 17 14 44 -9z m-449 -14 c85
-8 175 -21 199 -30 25 -8 94 -21 154 -29 99 -12 113 -16 134 -40 20 -24 22
-34 17 -84 -5 -51 -29 -120 -55 -162 -5 -8 -14 -26 -19 -40 -6 -14 -18 -30
-26 -37 -9 -6 -17 -20 -18 -30 -2 -12 -13 -19 -31 -21 -16 -2 -39 -15 -51 -30
-17 -19 -26 -23 -36 -15 -14 12 -65 6 -74 -8 -10 -16 -35 -10 -32 8 2 10 -4
19 -14 21 -11 2 -18 -3 -18 -12 0 -8 -4 -18 -10 -21 -10 -6 -55 19 -83 47 -10
10 -22 18 -28 18 -16 0 -21 -27 -10 -48 6 -11 8 -22 5 -25 -12 -12 -43 7 -54
34 -12 29 -34 42 -24 14 9 -22 -1 -19 -32 10 -15 14 -31 25 -35 25 -5 0 -19
-18 -31 -40 -27 -48 -42 -47 -46 3 -4 45 -33 51 -58 11 -18 -27 -28 -23 -48
18 -12 24 -66 39 -66 19 0 -6 -5 -11 -11 -11 -8 0 -10 14 -6 39 6 51 -5 70
-33 53 -18 -11 -20 -10 -20 15 0 35 -13 55 -31 51 -11 -2 -15 13 -17 69 -3 80
7 109 64 179 19 23 34 46 34 52 0 23 129 22 410 -3z m802 -190 c10 -25 15 -45
12 -45 -13 0 -43 47 -44 68 0 36 14 25 32 -23z m-2067 -835 c3 -5 1 -10 -4
-10 -6 0 -11 5 -11 10 0 6 2 10 4 10 3 0 8 -4 11 -10z m55 -62 c0 -4 -9 1 -20
12 -11 11 -20 23 -20 27 0 3 9 -2 20 -12 11 -10 20 -22 20 -27z m65 -48 c3 -5
1 -10 -4 -10 -6 0 -11 5 -11 10 0 6 2 10 4 10 3 0 8 -4 11 -10z m57 -47 c39
-32 78 -72 78 -79 0 -7 -48 28 -95 70 -47 41 -32 49 17 9z m188 -172 c25 -22
42 -42 39 -46 -4 -3 -28 15 -55 39 -60 55 -46 61 16 7z m103 -114 c-3 -4 -16
4 -29 18 -33 35 -30 42 5 13 15 -13 26 -27 24 -31z m-754 -1 c39 -21 106 -96
134 -153 36 -72 55 -137 71 -248 32 -219 38 -304 34 -480 -6 -210 -12 -235
-129 -466 l-69 -136 14 -104 c8 -57 26 -152 39 -211 31 -134 51 -311 44 -389
-3 -33 -8 -63 -11 -66 -3 -3 -52 22 -108 56 -163 98 -330 176 -498 232 -177
59 -193 66 -187 84 3 7 1 17 -4 22 -5 5 -12 34 -16 63 -4 34 -14 61 -27 74
l-21 21 -5 -78 -5 -78 -58 61 c-42 43 -65 60 -80 58 -34 -5 -29 -20 22 -75 26
-29 43 -53 38 -53 -17 0 35 -50 79 -76 23 -14 95 -40 161 -59 290 -82 603
-245 661 -343 26 -46 27 -51 26 -192 -1 -140 -2 -147 -30 -200 -41 -76 -113
-119 -201 -120 -47 0 -63 4 -63 14 0 10 -17 13 -67 13 -38 0 -105 10 -153 23
-105 27 -220 39 -461 47 l-186 5 -40 -25 c-41 -26 -107 -113 -97 -128 13 -21
55 -6 112 40 52 42 67 49 94 45 83 -10 221 -26 303 -34 151 -14 266 -30 340
-47 115 -25 199 -28 289 -7 97 22 151 59 186 129 14 28 29 49 35 49 22 -4 102
-176 120 -262 20 -91 27 -322 12 -375 -9 -33 -88 -87 -126 -87 -25 0 -26 2
-27 66 -2 67 -17 102 -33 75 -5 -7 -6 -25 -2 -40 4 -14 7 -43 7 -63 -1 -21 4
-38 9 -39 10 -1 -12 -8 -95 -29 -32 -9 -92 -10 -210 -4 -91 5 -232 8 -315 8
-82 -1 -233 -2 -335 -3 -102 -1 -211 0 -242 1 -105 4 -84 -30 35 -57 60 -14
153 -16 597 -18 553 -2 560 -1 662 45 27 12 50 19 53 17 12 -13 27 -164 22
-239 -7 -118 -29 -185 -68 -206 -17 -8 -37 -13 -45 -10 -8 3 -14 1 -14 -5 0
-9 -17 -18 -67 -33 -17 -6 -23 -3 -23 8 0 25 -18 19 -22 -6 -2 -18 -14 -26
-53 -36 -186 -50 -273 -62 -456 -62 -90 0 -170 -4 -177 -9 -8 -5 -42 -2 -80 6
-63 13 -69 12 -141 -12 -80 -26 -141 -58 -141 -74 0 -5 7 -14 15 -21 13 -11
31 -9 103 12 85 25 92 26 322 21 207 -4 250 -3 364 16 71 12 162 33 203 47 41
14 81 23 89 20 13 -5 15 -23 11 -103 -5 -110 -10 -139 -38 -200 -10 -24 -19
-47 -19 -52 0 -5 -19 -27 -42 -49 -47 -46 -96 -71 -106 -55 -15 23 -51 24 -72
3 -11 -11 -32 -25 -46 -30 -75 -29 -581 5 -828 56 -88 18 -217 78 -255 118
-14 14 -21 26 -17 26 17 0 -23 29 -48 36 -60 15 -106 129 -106 264 0 79 -3 93
-30 141 -56 99 -60 114 -66 248 -6 113 -5 132 9 146 10 9 17 20 17 25 0 4 -21
34 -46 65 -28 34 -44 62 -40 71 8 21 -4 40 -14 23 -12 -18 -36 3 -45 39 -3 15
-21 49 -38 77 -29 45 -32 57 -32 130 0 59 8 106 29 179 37 129 33 214 -15 326
-60 141 -65 164 -56 243 30 270 56 327 200 445 56 45 132 109 169 140 129 112
291 212 410 254 61 21 117 42 127 47 29 16 86 74 120 121 17 26 46 54 64 64
17 11 47 33 65 49 21 21 32 26 33 16 0 -7 2 -25 4 -39 4 -36 -14 -287 -24
-331 -11 -51 -3 -89 19 -89 10 0 22 6 28 13 24 29 41 189 47 447 8 343 30 533
81 720 88 320 94 337 139 388 13 15 34 39 47 54 46 53 197 85 257 54z m817
-51 c42 -39 45 -45 26 -45 -12 0 -22 3 -22 8 0 4 -14 21 -30 39 -27 29 -36 43
-27 43 2 0 26 -20 53 -45z m54 -65 c0 -5 -2 -10 -4 -10 -3 0 -8 5 -11 10 -3 6
-1 10 4 10 6 0 11 -4 11 -10z m90 -61 c0 -6 -4 -7 -10 -4 -5 3 -10 11 -10 16
0 6 5 7 10 4 6 -3 10 -11 10 -16z m-26 -15 c3 -8 2 -12 -4 -9 -6 3 -10 10 -10
16 0 14 7 11 14 -7z m134 -129 c6 0 14 -4 19 -9 5 -6 2 -6 -7 -1 -8 5 2 -8 23
-28 20 -21 37 -43 37 -50 0 -8 -4 -6 -10 3 -6 10 -12 11 -19 5 -6 -7 -3 -18 9
-32 15 -19 19 -20 24 -7 5 14 9 14 22 3 9 -8 27 -30 40 -49 13 -19 37 -52 53
-73 17 -22 28 -45 24 -55 -3 -12 -2 -13 4 -4 7 9 15 6 33 -13 13 -14 18 -25
12 -25 -7 0 -12 -4 -12 -10 0 -5 6 -10 14 -10 7 0 32 -27 55 -60 l41 -61 -26
-34 c-14 -19 -29 -35 -32 -37 -7 -3 -97 -114 -152 -187 -14 -18 -35 -45 -46
-59 -12 -15 -60 -90 -107 -167 -111 -182 -114 -185 -142 -185 -21 0 -99 56
-117 84 -19 29 -4 24 42 -15 28 -23 52 -40 54 -38 2 2 11 20 21 39 18 35 51
85 71 106 6 7 26 36 44 66 105 168 188 281 262 356 29 30 26 93 -8 143 -13 19
-24 39 -24 43 0 4 -9 19 -20 33 -23 29 -27 51 -6 34 11 -9 15 -6 18 14 5 24
-1 29 -29 26 -7 -1 -13 2 -13 7 0 5 -11 14 -23 19 -13 6 -31 27 -40 46 -9 19
-23 40 -31 46 -8 7 -33 43 -56 80 -22 38 -50 77 -60 86 -11 10 -20 23 -20 29
0 6 -9 17 -20 24 -11 7 -20 18 -20 25 0 6 25 -15 54 -48 30 -33 58 -60 64 -60z
m880 -510 c61 -129 106 -245 98 -252 -9 -9 -136 -23 -216 -23 -93 -1 -187 -19
-226 -44 -19 -13 -24 -14 -24 -3 0 12 134 87 155 87 4 0 43 20 88 45 79 45
103 51 76 19 -12 -14 -11 -16 6 -12 15 3 19 10 16 28 -2 14 -5 70 -7 125 -5
105 -2 107 34 30z m-1163 -513 c-7 -7 -34 18 -47 42 -8 16 -3 14 21 -8 17 -16
29 -32 26 -34z m785 24 c51 -13 163 -42 254 -67 l39 -11 -6 -271 c-4 -150 -13
-333 -21 -408 -22 -201 -23 -458 -3 -539 20 -80 21 -85 3 -68 -7 8 -24 58 -36
111 -21 90 -22 112 -16 305 3 114 9 352 12 529 l6 322 -38 9 c-135 33 -164 42
-208 59 -27 10 -51 24 -54 31 -5 15 -1 15 68 -2z m-2905 -206 c3 -5 -1 -10 -9
-10 -9 0 -16 5 -16 10 0 6 4 10 9 10 6 0 13 -4 16 -10z m-520 -687 c-13 -35
-20 -99 -20 -183 0 -77 3 -90 31 -140 67 -119 75 -213 33 -402 -30 -140 -26
-220 18 -330 20 -51 57 -127 82 -168 49 -81 46 -66 70 -322 9 -108 19 -133 68
-188 33 -36 28 -46 -8 -16 -17 15 -44 33 -60 42 -20 10 -28 21 -26 37 1 16 -3
22 -18 22 -12 0 -66 46 -139 119 -106 107 -123 129 -162 211 -55 116 -69 159
-90 270 -34 186 -28 431 16 595 16 57 58 186 68 206 5 11 23 49 41 86 18 38
37 66 41 63 4 -2 8 5 8 18 0 12 10 39 22 60 23 39 37 50 25 20z m4025 -1333
c0 -5 -2 -10 -4 -10 -3 0 -8 5 -11 10 -3 6 -1 10 4 10 6 0 11 -4 11 -10z
m-3840 -330 c0 -5 -4 -10 -10 -10 -5 0 -10 5 -10 10 0 6 5 10 10 10 6 0 10 -4
10 -10z"/>
<path d="M5765 8250 c-12 -4 -68 -17 -125 -29 -108 -21 -222 -62 -228 -80 -7
-21 53 -35 258 -61 109 -14 101 -12 320 -85 164 -54 255 -75 323 -75 44 0 57
5 85 31 18 17 32 40 32 54 0 20 -9 26 -67 45 -77 25 -196 73 -296 119 -37 17
-75 31 -85 31 -10 0 -22 4 -27 9 -13 11 -135 51 -154 50 -9 0 -25 -4 -36 -9z"/>
<path d="M5790 7870 c-90 -8 -210 -26 -217 -34 -2 -2 -5 -13 -6 -25 -1 -11 -9
-24 -19 -27 -10 -3 -18 -9 -18 -14 0 -11 57 -30 73 -24 7 2 42 -14 77 -37 74
-48 96 -57 167 -70 67 -13 88 -2 113 57 23 54 45 57 95 13 42 -38 46 -66 8
-75 l-27 -7 25 -9 c13 -5 43 -11 67 -13 38 -3 42 -1 42 19 0 29 -41 92 -83
129 l-32 28 30 -7 c16 -4 47 -20 69 -36 38 -27 66 -36 66 -20 0 12 -55 66
-122 120 -16 13 -176 44 -208 40 -8 0 -53 -4 -100 -8z m-30 -56 c0 -2 -7 -4
-15 -4 -8 0 -15 4 -15 10 0 5 7 7 15 4 8 -4 15 -8 15 -10z m-122 -12 c2 -8 -8
-12 -29 -12 -31 0 -32 1 -13 15 21 16 36 15 42 -3z m102 -67 c0 -28 -12 -32
-30 -10 -14 16 -6 35 16 35 8 0 14 -10 14 -25z m190 10 c15 -18 6 -45 -13 -45
-8 0 -20 7 -27 15 -10 12 -10 18 0 30 16 19 24 19 40 0z"/>
<path d="M6651 7735 c-23 -30 -44 -67 -47 -82 -3 -16 4 -91 16 -168 50 -331
80 -553 80 -596 0 -42 -4 -50 -49 -92 -49 -45 -92 -62 -142 -55 -19 2 -25 11
-30 41 -3 20 -17 49 -30 63 -23 25 -27 26 -99 19 -41 -3 -93 -8 -116 -11 -39
-6 -42 -4 -57 28 -19 40 -9 109 25 169 29 52 59 59 148 34 l25 -8 -20 21 c-11
12 -40 23 -66 27 -41 6 -49 4 -89 -27 -66 -50 -81 -77 -87 -149 -4 -59 -3 -67
26 -105 36 -48 56 -54 173 -54 48 0 77 -4 73 -10 -7 -11 40 -67 70 -83 22 -12
175 -26 175 -16 0 3 27 9 59 12 84 9 109 23 117 64 10 54 -2 126 -31 183 -20
40 -32 94 -55 256 -35 237 -35 245 -16 238 8 -3 17 -1 20 5 4 5 -3 12 -14 16
-19 6 -29 45 -12 45 5 0 31 -11 59 -25 115 -55 192 -54 392 2 24 6 -76 99
-133 124 -63 27 -169 36 -222 19 -21 -7 -53 -23 -71 -36 -17 -13 -34 -24 -37
-24 -11 0 -4 154 7 175 13 24 17 55 7 55 -4 0 -26 -25 -49 -55z m153 -187 c3
-13 6 -26 6 -30 0 -11 -32 -10 -50 2 -12 7 -12 12 4 29 24 27 32 26 40 -1z
m156 8 c0 -8 -4 -18 -10 -21 -5 -3 -10 3 -10 14 0 12 5 21 10 21 6 0 10 -6 10
-14z m104 -27 c39 -31 33 -46 -26 -64 -28 -8 -53 -13 -55 -11 -6 5 40 96 48
96 3 0 18 -9 33 -21z m-305 -720 c1 -36 -22 -80 -35 -67 -4 5 -1 26 6 47 7 22
10 47 6 56 -3 9 -3 22 1 28 9 15 21 -20 22 -64z"/>
<path d="M7115 7769 c-11 -16 -1 -19 13 -3 7 8 8 14 3 14 -5 0 -13 -5 -16 -11z"/>
<path d="M6720 7760 c0 -5 4 -10 9 -10 6 0 13 5 16 10 3 6 -1 10 -9 10 -9 0
-16 -4 -16 -10z"/>
<path d="M6806 7716 c-66 -26 -87 -49 -58 -65 13 -7 22 -7 30 1 6 6 45 13 86
16 111 7 203 -23 252 -83 40 -47 60 -51 42 -7 -21 49 -41 66 -170 145 -38 23
-111 20 -182 -7z"/>
<path d="M7190 7636 c0 -9 5 -16 10 -16 6 0 10 4 10 9 0 6 -4 13 -10 16 -5 3
-10 -1 -10 -9z"/>
<path d="M5898 7523 c7 -3 16 -2 19 1 4 3 -2 6 -13 5 -11 0 -14 -3 -6 -6z"/>
<path d="M5367 6746 c-4 -10 -5 -21 -2 -24 9 -9 17 6 13 25 -3 17 -4 17 -11
-1z"/>
<path d="M4451 6224 c0 -11 3 -14 6 -6 3 7 2 16 -1 19 -3 4 -6 -2 -5 -13z"/>
<path d="M4398 5933 c-2 -10 -1 -29 3 -43 6 -20 7 -17 8 18 1 44 -4 54 -11 25z"/>
<path d="M5845 6251 c-3 -6 16 -26 41 -45 48 -37 64 -43 64 -26 0 6 -3 10 -7
10 -5 0 -23 9 -41 20 -28 17 -32 23 -22 35 10 12 9 15 -8 15 -12 0 -23 -4 -27
-9z"/>
<path d="M5937 6219 c18 -11 35 -29 38 -40 4 -11 31 -38 61 -60 48 -35 70 -69
45 -69 -5 0 -14 -13 -21 -30 -10 -25 -10 -34 4 -55 19 -29 33 -31 72 -10 28
14 29 14 32 -8 6 -36 33 -59 61 -52 19 5 29 1 43 -17 16 -22 19 -22 45 -8 22
13 27 22 25 44 -3 20 0 27 10 24 8 -3 12 -17 10 -37 -2 -28 1 -31 27 -31 21 0
34 9 54 38 15 20 36 43 47 50 11 7 20 23 20 36 0 23 28 56 48 56 17 0 72 50
72 66 0 16 -36 19 -45 4 -4 -6 -15 -8 -25 -5 -11 3 -37 1 -59 -6 -33 -10 -55
-8 -138 9 -54 12 -127 26 -163 32 -82 14 -260 70 -260 81 0 5 -8 9 -17 9 -13
0 -8 -7 14 -21z m506 -215 c9 -9 -4 -35 -14 -28 -5 3 -9 12 -9 20 0 14 12 19
23 8z"/>
<path d="M5984 6099 c-7 -12 13 -29 35 -29 11 0 10 5 -4 20 -21 23 -22 23 -31
9z"/>
<path d="M4200 3750 c0 -40 2 -71 6 -68 7 8 7 128 0 136 -3 3 -6 -28 -6 -68z"/>
<path d="M4286 3643 c4 -33 2 -43 -13 -52 -16 -9 -16 -12 -3 -21 8 -5 18 -10
23 -10 9 0 7 68 -4 100 -6 19 -7 14 -3 -17z"/>
<path d="M4194 3649 c-3 -6 -1 -16 5 -22 8 -8 11 -5 11 11 0 24 -5 28 -16 11z"/>
<path d="M4201 3564 c0 -11 3 -14 6 -6 3 7 2 16 -1 19 -3 4 -6 -2 -5 -13z"/>
<path d="M4243 3557 c2 -7 0 -21 -6 -32 -8 -17 -6 -16 17 4 14 14 26 25 26 27
0 1 -9 4 -21 7 -13 3 -19 1 -16 -6z"/>
<path d="M3038 2453 c7 -3 16 -2 19 1 4 3 -2 6 -13 5 -11 0 -14 -3 -6 -6z"/>
<path d="M3120 2446 c0 -2 7 -7 16 -10 8 -3 12 -2 9 4 -6 10 -25 14 -25 6z"/>
<path d="M3165 2410 c3 -5 8 -10 11 -10 2 0 4 5 4 10 0 6 -5 10 -11 10 -5 0
-7 -4 -4 -10z"/>
<path d="M4523 2318 c4 -40 2 -70 -4 -73 -5 -4 -7 -21 -3 -39 3 -18 1 -50 -4
-70 -13 -47 -7 -46 15 2 21 48 24 215 4 234 -11 11 -13 2 -8 -54z"/>
<path d="M4425 2060 c-3 -5 -2 -10 4 -10 5 0 13 5 16 10 3 6 2 10 -4 10 -5 0
-13 -4 -16 -10z"/>
<path d="M3330 1926 c0 -2 7 -7 16 -10 8 -3 12 -2 9 4 -6 10 -25 14 -25 6z"/>
<path d="M4660 1753 c0 -4 5 -15 10 -23 8 -13 10 -13 10 2 0 9 -4 20 -10 23
-5 3 -10 3 -10 -2z"/>
<path d="M4684 1530 c0 -99 3 -180 8 -180 4 0 9 57 10 128 1 70 3 108 5 85 7
-73 18 -47 18 40 0 83 -7 107 -28 107 -9 0 -12 -48 -13 -180z m36 134 c0 -8
-4 -12 -10 -9 -5 3 -10 10 -10 16 0 5 5 9 10 9 6 0 10 -7 10 -16z"/>
<path d="M4731 1614 c0 -11 3 -14 6 -6 3 7 2 16 -1 19 -3 4 -6 -2 -5 -13z"/>
<path d="M4740 1545 c0 -14 4 -25 9 -25 4 0 6 11 3 25 -2 14 -6 25 -8 25 -2 0
-4 -11 -4 -25z"/>
<path d="M4711 1424 c0 -11 3 -14 6 -6 3 7 2 16 -1 19 -3 4 -6 -2 -5 -13z"/>
<path d="M3228 1383 c6 -2 18 -2 25 0 6 3 1 5 -13 5 -14 0 -19 -2 -12 -5z"/>
<path d="M4711 1054 c0 -16 4 -38 9 -49 7 -15 9 -9 6 23 -3 48 -16 70 -15 26z"/>
<path d="M4771 1014 c0 -11 3 -14 6 -6 3 7 2 16 -1 19 -3 4 -6 -2 -5 -13z"/>
<path d="M3550 900 c20 -13 33 -13 25 0 -3 6 -14 10 -23 10 -15 0 -15 -2 -2
-10z"/>
<path d="M4553 521 c-6 -16 -8 -40 -6 -54 5 -27 -13 -71 -26 -63 -4 3 -5 -9
-2 -27 5 -32 6 -32 9 -4 2 15 7 27 12 27 5 0 6 -17 3 -37 l-5 -38 21 37 c15
28 21 55 21 100 0 76 -11 100 -27 59z"/>
<path d="M3356 422 c33 -30 81 -50 94 -41 12 9 12 10 -2 5 -10 -3 -18 -2 -18
3 0 4 -19 15 -42 24 -23 10 -38 13 -32 9z"/>
<path d="M3480 360 c0 -5 5 -10 10 -10 6 0 10 5 10 10 0 6 -4 10 -10 10 -5 0
-10 -4 -10 -10z"/>
<path d="M3516 352 c-2 -4 4 -9 15 -9 11 -1 17 2 14 8 -7 11 -22 12 -29 1z"/>
<path d="M4490 318 c0 -4 4 -8 9 -8 6 0 12 4 15 8 3 5 -1 9 -9 9 -8 0 -15 -4
-15 -9z"/>
<path d="M3683 303 c9 -2 23 -2 30 0 6 3 -1 5 -18 5 -16 0 -22 -2 -12 -5z"/>
<path d="M3778 303 c12 -2 30 -2 40 0 9 3 -1 5 -23 4 -22 0 -30 -2 -17 -4z"/>
<path d="M3878 283 c6 -2 18 -2 25 0 6 3 1 5 -13 5 -14 0 -19 -2 -12 -5z"/>
<path d="M5710 4441 c0 -5 5 -13 10 -16 6 -3 10 -2 10 4 0 5 -4 13 -10 16 -5
3 -10 2 -10 -4z"/>
<path d="M5771 4365 c0 -14 28 -50 34 -43 3 3 -3 16 -14 29 -11 13 -20 20 -20
14z"/>
<path d="M5923 4159 c-2 -23 3 -25 10 -4 4 8 3 16 -1 19 -4 3 -9 -4 -9 -15z"/>
<path d="M5987 4083 c-4 -3 -7 -11 -7 -17 0 -6 5 -5 12 2 6 6 9 14 7 17 -3 3
-9 2 -12 -2z"/>
<path d="M6004 4032 c4 -7 2 -20 -6 -30 -12 -16 -11 -16 7 -2 11 8 21 15 23
16 1 1 -5 7 -15 15 -12 10 -15 10 -9 1z"/>
<path d="M5956 4002 c-3 -6 -1 -14 5 -17 14 -9 20 -2 10 14 -6 8 -11 9 -15 3z"/>
<path d="M6556 3857 c3 -10 9 -15 12 -12 3 3 0 11 -7 18 -10 9 -11 8 -5 -6z"/>
<path d="M6575 3790 c3 -5 8 -10 11 -10 2 0 4 5 4 10 0 6 -5 10 -11 10 -5 0
-7 -4 -4 -10z"/>
<path d="M6540 3780 c0 -5 5 -10 10 -10 6 0 10 5 10 10 0 6 -4 10 -10 10 -5 0
-10 -4 -10 -10z"/>
<path d="M2707 2433 c3 -74 13 -81 13 -10 0 31 -4 58 -8 61 -4 2 -7 -21 -5
-51z"/>
<path d="M2681 2453 c-1 -6 -4 -20 -7 -30 -5 -17 -5 -17 6 0 6 10 9 23 6 30
-3 9 -5 9 -5 0z"/>
<path d="M2666 2372 c-5 -18 -5 -36 -2 -39 7 -7 19 43 13 59 -2 7 -7 -2 -11
-20z"/>
<path d="M2646 2294 c-4 -14 -5 -29 -2 -31 3 -3 8 7 12 21 3 15 4 29 1 32 -2
3 -8 -7 -11 -22z"/>
<path d="M2788 2185 c2 -14 8 -25 12 -25 10 0 1 38 -10 45 -4 2 -5 -7 -2 -20z"/>
<path d="M2597 2084 c-4 -4 -6 -32 -6 -63 l1 -56 9 54 c10 57 9 77 -4 65z"/>
<path d="M2636 1523 c-6 -14 -5 -15 5 -6 7 7 10 15 7 18 -3 3 -9 -2 -12 -12z"/>
<path d="M6691 1694 c0 -11 3 -14 6 -6 3 7 2 16 -1 19 -3 4 -6 -2 -5 -13z"/>
<path d="M6691 1644 c0 -11 3 -14 6 -6 3 7 2 16 -1 19 -3 4 -6 -2 -5 -13z"/>
<path d="M6791 1324 c0 -11 3 -14 6 -6 3 7 2 16 -1 19 -3 4 -6 -2 -5 -13z"/>
<path d="M6841 1184 c0 -11 3 -14 6 -6 3 7 2 16 -1 19 -3 4 -6 -2 -5 -13z"/>
<path d="M6850 1110 c0 -19 3 -21 12 -12 9 9 9 15 0 24 -9 9 -12 7 -12 -12z"/>
<path d="M6880 1050 c0 -5 5 -10 10 -10 6 0 10 -8 10 -17 0 -15 2 -15 9 -4 6
9 4 19 -4 28 -16 16 -25 17 -25 3z"/>
<path d="M6820 1034 c0 -5 7 -18 15 -28 12 -16 15 -17 15 -4 0 8 -7 21 -15 28
-8 7 -15 9 -15 4z"/>
<path d="M6856 966 c-4 -16 -5 -31 -1 -34 3 -3 5 3 6 14 1 15 3 13 9 -6 6 -20
8 -21 8 -5 0 11 -3 29 -7 40 -7 17 -9 16 -15 -9z"/>
<path d="M6971 914 c0 -11 3 -14 6 -6 3 7 2 16 -1 19 -3 4 -6 -2 -5 -13z"/>
</g>
</svg>
